<svg width="1284" height="182" viewBox="0 0 1284 182" fill="none" xmlns="http://www.w3.org/2000/svg">
<path d="M178.696 26.5254C120.2 36.8069 24.547 94.7169 0 121.214V182H1284V130.567C1151.04 30.8121 963.47 -3.47849 830.507 60.4267C724.136 111.551 602.936 60.4267 540.034 52.633C518.214 48.9961 461.074 43.9044 407.071 52.633C339.567 63.5438 258.507 12.4974 178.696 26.5254Z" fill="white"/>
<mask id="mask0_2714_96964" style="mask-type:alpha" maskUnits="userSpaceOnUse" x="1174" y="56" width="110" height="94">
<rect x="1174" y="56.1543" width="110" height="93.2562" fill="#C4C4C4"/>
</mask>
<g mask="url(#mask0_2714_96964)">
<path d="M1183.32 87.8656C1220.24 71.2293 1301.01 53.262 1328.78 114.484C1363.49 191.011 1124.65 103.274 1183.32 87.8656Z" fill="#FFC20E"/>
</g>
<path d="M1064.95 58.094C1064.95 46.6058 1069.58 42.6746 1078.67 41.6859C1081.89 44.4399 1087.68 47.0146 1090.09 49.6969C1094.64 54.7361 1093.18 67.1043 1085.61 68.7813C1079.36 70.1686 1064.95 65.6458 1064.95 58.094Z" fill="#001F68"/>
<path d="M975.216 13.3063C975.171 30.6181 982.128 65.4093 1010.32 66.0801C1045.55 66.9186 971.064 -12.3629 975.216 13.3063Z" fill="#00B7FF"/>
<path d="M922.853 119.275C929.805 122.268 944.986 125.433 950.098 114.155C956.488 100.057 911.821 116.544 922.853 119.275Z" fill="#FFBC61"/>
<path d="M803 96.8985C803 91.3285 805.241 89.4224 809.638 88.943C811.196 90.2783 813.994 91.5267 815.165 92.8271C817.365 95.2704 816.656 101.267 812.996 102.08C809.969 102.753 803 100.56 803 96.8985Z" fill="#00BBB3"/>
<path d="M6.41018 66.1816C28.7435 56.1541 77.6102 45.3243 94.4102 82.2257C115.41 128.352 -29.0898 75.4689 6.41018 66.1816Z" fill="#001F68"/>
<path d="M122.446 94.6983C122.446 87.8327 125.199 85.4833 130.603 84.8924C132.518 86.5383 135.956 88.077 137.395 89.68C140.098 92.6915 139.227 100.083 134.73 101.085C131.009 101.914 122.446 99.2114 122.446 94.6983Z" fill="#FFBC61"/>
</svg>
