<?xml version="1.0" encoding="UTF-8" standalone="no"?>
<svg
   viewBox="0 0 448 512"
   version="1.1"
   id="svg1"
   sodipodi:docname="instagram.svg"
   xml:space="preserve"
   inkscape:version="1.3.2 (091e20e, 2023-11-25, custom)"
   xmlns:inkscape="http://www.inkscape.org/namespaces/inkscape"
   xmlns:sodipodi="http://sodipodi.sourceforge.net/DTD/sodipodi-0.dtd"
   xmlns="http://www.w3.org/2000/svg"
   xmlns:svg="http://www.w3.org/2000/svg"><defs
     id="defs1" /><sodipodi:namedview
     id="namedview1"
     pagecolor="#ffffff"
     bordercolor="#000000"
     borderopacity="0.25"
     inkscape:showpageshadow="2"
     inkscape:pageopacity="0.0"
     inkscape:pagecheckerboard="0"
     inkscape:deskcolor="#d1d1d1"
     inkscape:zoom="2.3837"
     inkscape:cx="218.35801"
     inkscape:cy="219.61656"
     inkscape:window-width="2560"
     inkscape:window-height="1494"
     inkscape:window-x="-11"
     inkscape:window-y="-11"
     inkscape:window-maximized="1"
     inkscape:current-layer="svg1" /><path
     style="fill:#000000;stroke-width:5.15219"
     d="M 117.13478,477.85556 C 61.956075,473.67008 10.591095,430.34653 3.9232497,374.31219 -1.6895458,304.51452 -0.10916202,234.33784 0.74845697,164.38263 -0.41652858,128.98134 14.730361,94.660323 37.898814,68.51328 73.294718,36.57199 123.87939,34.129432 169.03606,31.004539 c 58.76714,-1.547827 118.02249,-1.78252 176.32588,6.570822 48.60272,5.541425 90.60423,46.329239 97.42117,94.718319 8.09548,62.1669 4.33134,125.13661 4.97986,187.65189 -0.37595,32.60955 0.58132,67.22332 -17.95665,95.77259 -16.29382,34.05469 -51.49695,54.49001 -88.00291,59.5261 -59.89593,9.07971 -120.86746,6.76896 -181.24198,5.54428 -14.49599,-0.60092 -29.00072,-1.34073 -43.42665,-2.93298 z m 245.91894,-49.3108 c 27.54727,-13.26501 40.23795,-43.34092 42.72855,-72.29988 6.21429,-63.6571 2.8843,-127.79384 0.97441,-191.59872 0.36274,-27.40321 -8.99159,-55.78232 -31.57474,-72.782103 C 341.91402,69.474004 299.52112,72.819261 261.26902,71.039264 208.34887,71.856283 154.82343,69.474621 102.54154,79.01251 c -26.154758,4.225165 -49.408855,23.20412 -55.297639,49.58977 -12.879017,53.14199 -7.553813,108.44981 -7.70792,162.59746 2.15377,35.59632 -1.533947,73.25652 12.69908,106.80069 15.3719,27.18388 47.12318,40.35618 77.405329,40.49138 64.6959,3.10136 129.58629,1.83151 194.29603,-0.34879 13.42514,-0.92305 27.48092,-2.14537 39.1173,-9.59826 z M 173.73674,358.73048 c -44.38457,-20.09395 -69.12972,-70.99142 -62.09044,-118.49149 4.37716,-47.93686 43.86133,-89.29259 91.59862,-95.70082 47.57822,-8.80498 101.27708,13.53483 122.07276,58.63925 25.63402,51.76869 8.95693,122.70363 -42.95092,151.53245 -32.00127,19.833 -74.89871,18.67158 -108.63002,4.02061 z m 87.3693,-36.20578 c 28.0872,-15.87492 46.80719,-57.36182 33.67065,-90.74372 -15.88379,-45.261 -80.69705,-67.8521 -117.61603,-33.78249 -30.68542,26.34247 -35.03762,76.78446 -7.93934,107.17742 21.63038,27.24306 64.74961,32.68558 91.88472,17.34879 z"
     id="path2"
     sodipodi:nodetypes="ccccccccccccccccccccccccccccccaccca" /><circle
     style="fill:#000000;stroke:none;stroke-width:2;stroke-linecap:round;stroke-linejoin:round;fill-opacity:1"
     id="path3"
     cx="343.77151"
     cy="136.78795"
     r="24.539438" /></svg>
