<svg width="493" height="363" viewBox="0 0 493 363" fill="none" xmlns="http://www.w3.org/2000/svg">
<path fill-rule="evenodd" clip-rule="evenodd" d="M273.14 21.8052C257.802 84.0842 242.516 139.238 200.795 148.545C187.379 151.531 173.263 153.85 158.973 156.196C97.0803 166.359 31.9418 177.056 6.45221 244.937C1.13924 259.31 -0.740901 274.725 0.961948 289.954C4.49979 320.699 18.943 344.727 39.4776 363H359.761C389.358 346.01 416.829 325.316 441.247 302.179C461.795 282.717 479.908 259.391 493 233.693V51.008C483.354 31.7902 470.547 14.3691 454.673 0H281.513C277.985 6.42541 275.154 13.6815 273.14 21.8052Z" fill="#EEEEFF"/>
</svg>
