<svg width="478" height="61" viewBox="0 0 478 61" fill="none" xmlns="http://www.w3.org/2000/svg">
<path d="M345.928 17.5794C345.433 17.5794 344.981 17.6518 344.571 17.8087C344.16 17.9596 343.804 18.1768 343.515 18.4544C343.219 18.7319 342.996 19.0759 342.845 19.4922C342.694 19.9086 342.609 20.3551 342.609 20.8499C342.609 21.3508 342.694 21.8154 342.869 22.2378C343.044 22.6602 343.285 23.0102 343.605 23.2998C343.919 23.5895 344.293 23.8067 344.721 23.9576C345.15 24.1084 345.621 24.1869 346.121 24.1869C346.9 24.1869 347.557 23.9696 348.107 23.5412C348.65 23.1128 348.994 22.5275 349.144 21.7852H345.977V20.3974H350.792C350.798 20.8198 350.774 21.2784 350.701 21.7792C350.635 22.2801 350.49 22.7628 350.273 23.2274C350.056 23.6921 349.784 24.0964 349.458 24.4282C349.126 24.7601 348.752 25.0317 348.324 25.2368C347.895 25.442 347.473 25.5808 347.057 25.6532C346.634 25.7256 346.254 25.7618 345.916 25.7618C345.204 25.7618 344.54 25.6411 343.925 25.3998C343.309 25.1584 342.778 24.8144 342.332 24.3679C341.885 23.9214 341.535 23.4024 341.294 22.799C341.053 22.1956 340.932 21.5439 340.932 20.8499C340.932 20.1077 341.059 19.4319 341.306 18.8285C341.559 18.219 341.909 17.7121 342.362 17.3079C342.815 16.9036 343.352 16.5898 343.967 16.3725C344.583 16.1553 345.252 16.0527 345.964 16.0527C346.459 16.0527 346.948 16.107 347.425 16.2096C347.901 16.3122 348.354 16.4812 348.77 16.7165C349.187 16.9518 349.549 17.2656 349.85 17.6639C350.152 18.0621 350.369 18.5328 350.496 19.0819L349.108 19.5888C348.969 19.1483 348.746 18.7802 348.445 18.4845C348.137 18.1888 347.769 17.9656 347.328 17.8147C346.888 17.6578 346.417 17.5794 345.928 17.5794Z" fill="white" stroke="#C2C2C2" stroke-width="0.779835" stroke-miterlimit="10"/>
<path d="M358.437 25.7737C357.725 25.7737 357.067 25.659 356.464 25.4237C355.86 25.1883 355.341 24.8565 354.913 24.428C354.485 23.9996 354.153 23.4807 353.917 22.8833C353.682 22.2859 353.567 21.6342 353.567 20.9282C353.567 20.198 353.682 19.5222 353.911 18.9067C354.141 18.2912 354.466 17.7663 354.895 17.3378C355.323 16.9094 355.83 16.5775 356.434 16.3422C357.031 16.1068 357.689 15.9922 358.401 15.9922C359.113 15.9922 359.771 16.1068 360.38 16.3422C360.983 16.5775 361.502 16.9094 361.937 17.3378C362.371 17.7663 362.703 18.2852 362.939 18.8826C363.174 19.48 363.289 20.1317 363.289 20.8377C363.289 21.5678 363.174 22.2436 362.945 22.8591C362.715 23.4746 362.389 23.9996 361.955 24.428C361.527 24.8565 361.008 25.1883 360.41 25.4237C359.807 25.659 359.149 25.7737 358.437 25.7737ZM361.659 20.9885C361.659 19.9386 361.364 19.0877 360.766 18.4481C360.169 17.8085 359.378 17.4887 358.395 17.4887C357.918 17.4887 357.478 17.5611 357.079 17.718C356.675 17.8688 356.337 18.0861 356.053 18.3757C355.776 18.6654 355.559 19.0153 355.408 19.4257C355.257 19.836 355.179 20.2946 355.179 20.7954C355.179 21.3083 355.257 21.779 355.408 22.2135C355.559 22.6479 355.776 23.0221 356.06 23.3298C356.343 23.6436 356.687 23.8789 357.091 24.0418C357.496 24.2048 357.936 24.2893 358.425 24.2893C359.415 24.2893 360.199 23.9936 360.784 23.3962C361.37 22.8048 361.659 22.0023 361.659 20.9885Z" fill="white" stroke="#C2C2C2" stroke-width="0.779835" stroke-miterlimit="10"/>
<path d="M366.843 16.3304L371.248 16.3184C372.418 16.3184 373.287 16.4149 373.849 16.614C374.41 16.8132 374.802 17.0847 375.031 17.4468C375.254 17.8028 375.369 18.2312 375.369 18.726C375.369 19.3656 375.067 19.957 374.464 20.494C374.814 20.7294 375.08 21.019 375.273 21.3509C375.466 21.6828 375.562 22.0448 375.562 22.431C375.562 22.9801 375.46 23.4508 375.254 23.8491C375.049 24.2473 374.772 24.5611 374.428 24.7965C374.084 25.0318 373.698 25.2007 373.263 25.3033C372.829 25.4059 372.376 25.4602 371.899 25.4602H366.849V16.3304H366.843ZM368.394 19.957H372.316C372.611 19.957 372.865 19.8846 373.076 19.7458C373.293 19.607 373.432 19.4501 373.511 19.2812C373.583 19.1122 373.619 18.9674 373.619 18.8467C373.619 18.5631 373.486 18.3217 373.227 18.1286C372.968 17.9295 372.593 17.8329 372.111 17.8329L368.394 17.8752V19.957ZM368.394 21.4535V23.9939L371.978 24.0241C372.491 24.0241 372.931 23.8973 373.293 23.6379C373.661 23.3844 373.842 23.0224 373.842 22.5698C373.842 22.1957 373.674 21.9181 373.33 21.7311C372.986 21.55 372.551 21.4595 372.032 21.4595H368.394V21.4535Z" fill="white" stroke="#C2C2C2" stroke-width="0.779835" stroke-miterlimit="10"/>
<path d="M380.812 25.4589H379.261V16.3291H380.812V25.4589Z" fill="white" stroke="#C2C2C2" stroke-width="0.779835" stroke-miterlimit="10"/>
<path d="M393.599 23.9503V25.4589H385.06V16.3291H393.333V17.8678H386.593V19.9798H392.193V21.5427H386.593V23.9443H393.599V23.9503Z" fill="white" stroke="#C2C2C2" stroke-width="0.779835" stroke-miterlimit="10"/>
<path d="M404.683 25.7184C404.327 25.7184 404.026 25.6158 403.778 25.4046C403.531 25.1934 403.326 24.9218 403.151 24.5839C402.982 24.246 402.783 23.7572 402.559 23.1236C402.336 22.49 402.167 22.0375 402.059 21.772H398.462V25.4649H396.911V16.3291H402.608C403.145 16.3291 403.633 16.3955 404.068 16.5222C404.502 16.6489 404.871 16.8299 405.166 17.0653C405.462 17.3006 405.691 17.5782 405.848 17.9101C406.005 18.242 406.083 18.604 406.083 18.9962C406.083 19.6721 405.866 20.2453 405.432 20.7039C404.997 21.1685 404.442 21.4461 403.766 21.5487C403.965 22.2728 404.134 22.7978 404.261 23.1297C404.388 23.4616 404.539 23.709 404.702 23.884C404.864 24.0589 405.07 24.1434 405.305 24.1434C405.54 24.1434 405.8 24.077 406.071 23.9503V25.4589C405.546 25.6339 405.082 25.7184 404.683 25.7184ZM398.462 20.4082H402.499C402.765 20.4082 403.036 20.3419 403.32 20.2031C403.603 20.0643 403.815 19.8953 403.953 19.6902C404.092 19.485 404.158 19.2738 404.158 19.0686C404.158 18.6824 404.008 18.3868 403.7 18.1695C403.392 17.9523 402.946 17.8497 402.348 17.8497L398.462 17.8799V20.4082Z" fill="white" stroke="#C2C2C2" stroke-width="0.779835" stroke-miterlimit="10"/>
<path d="M418.773 16.3291V25.4589H417.192L411.225 18.7307V25.4589H409.674V16.3291H411.237L417.223 23.1236V16.3291H418.773Z" fill="white" stroke="#C2C2C2" stroke-width="0.779835" stroke-miterlimit="10"/>
<path d="M427.203 25.7737C426.491 25.7737 425.833 25.659 425.23 25.4237C424.626 25.1883 424.108 24.8565 423.679 24.428C423.251 23.9996 422.919 23.4807 422.683 22.8833C422.448 22.2859 422.333 21.6342 422.333 20.9282C422.333 20.198 422.448 19.5222 422.677 18.9067C422.907 18.2912 423.233 17.7663 423.661 17.3378C424.089 16.9094 424.596 16.5775 425.2 16.3422C425.797 16.1068 426.455 15.9922 427.167 15.9922C427.879 15.9922 428.537 16.1068 429.146 16.3422C429.75 16.5775 430.269 16.9094 430.703 17.3378C431.137 17.7663 431.469 18.2852 431.705 18.8826C431.94 19.48 432.055 20.1317 432.055 20.8377C432.055 21.5678 431.94 22.2436 431.711 22.8591C431.481 23.4746 431.156 23.9996 430.721 24.428C430.293 24.8565 429.774 25.1883 429.176 25.4237C428.579 25.659 427.921 25.7737 427.203 25.7737ZM430.431 20.9885C430.431 19.9386 430.136 19.0877 429.538 18.4481C428.941 17.8085 428.15 17.4887 427.167 17.4887C426.69 17.4887 426.25 17.5611 425.851 17.718C425.447 17.8688 425.109 18.0861 424.826 18.3757C424.548 18.6654 424.331 19.0153 424.18 19.4257C424.029 19.836 423.951 20.2946 423.951 20.7954C423.951 21.3083 424.029 21.779 424.18 22.2135C424.331 22.6479 424.548 23.0221 424.832 23.3298C425.115 23.6436 425.459 23.8789 425.864 24.0418C426.268 24.2048 426.708 24.2893 427.197 24.2893C428.187 24.2893 428.971 23.9936 429.556 23.3962C430.136 22.8048 430.431 22.0023 430.431 20.9885Z" fill="white" stroke="#C2C2C2" stroke-width="0.779835" stroke-miterlimit="10"/>
<path d="M346.169 32.1279C346.827 32.1279 347.443 32.2305 348.01 32.4417C348.577 32.6529 349.066 32.9486 349.47 33.3287C349.875 33.7089 350.188 34.1675 350.412 34.6985C350.629 35.2356 350.743 35.8148 350.743 36.4364C350.743 37.1122 350.635 37.7518 350.418 38.3432C350.2 38.9406 349.893 39.4535 349.482 39.8879C349.072 40.3224 348.589 40.6603 348.022 40.9017C347.455 41.1431 346.833 41.2638 346.157 41.2638H341.644V32.146L346.169 32.1279ZM343.195 39.8155H345.663C346.707 39.8155 347.533 39.5078 348.143 38.8983C348.752 38.2828 349.054 37.4863 349.054 36.4967C349.054 35.6097 348.752 34.9097 348.149 34.4028C347.545 33.896 346.719 33.6425 345.681 33.6425L343.195 33.6546V39.8155Z" fill="white" stroke="#C2C2C2" stroke-width="0.779835" stroke-miterlimit="10"/>
<path d="M362.818 39.7607V41.2693H354.28V32.1455H362.552V33.6842H355.812V35.7962H361.412V37.3591H355.812V39.7607H362.818Z" fill="white" stroke="#C2C2C2" stroke-width="0.779835" stroke-miterlimit="10"/>
<path d="M378.863 35.4957C378.736 35.0673 378.513 34.6992 378.205 34.3914C377.892 34.0837 377.511 33.8423 377.059 33.6734C376.606 33.4984 376.142 33.4139 375.665 33.4139C375.188 33.4139 374.742 33.4863 374.325 33.6251C373.909 33.7699 373.547 33.9751 373.239 34.2466C372.931 34.5242 372.696 34.8621 372.527 35.2604C372.358 35.6647 372.274 36.1172 372.274 36.6181C372.274 36.8655 372.304 37.137 372.364 37.4327C372.425 37.7284 372.533 38.0241 372.696 38.3197C372.859 38.6154 373.076 38.8869 373.348 39.1344C373.625 39.3878 373.975 39.5869 374.41 39.7438C374.844 39.9007 375.315 39.9791 375.816 39.9791C376.371 39.9791 376.872 39.8705 377.318 39.6593C377.765 39.4421 378.115 39.1585 378.38 38.8085C378.646 38.4585 378.821 38.0542 378.899 37.5956L380.203 38.1568C380.118 38.899 379.871 39.5205 379.46 40.0214C379.05 40.5222 378.513 40.9084 377.849 41.1739C377.186 41.4394 376.437 41.5722 375.605 41.5722C374.899 41.5722 374.235 41.4515 373.613 41.2041C372.992 40.9567 372.455 40.6067 372.008 40.1602C371.562 39.7136 371.212 39.1826 370.964 38.5732C370.717 37.9637 370.596 37.312 370.596 36.6181C370.596 35.894 370.723 35.2362 370.976 34.6389C371.23 34.0415 371.58 33.5406 372.032 33.1303C372.485 32.72 373.028 32.4062 373.65 32.189C374.277 31.9717 374.953 31.8691 375.689 31.8691C376.383 31.8691 377.005 31.9597 377.542 32.1346C378.079 32.3157 378.543 32.545 378.923 32.8346C379.304 33.1243 379.599 33.4561 379.81 33.8303C380.022 34.2044 380.166 34.5785 380.251 34.9526L378.863 35.4957Z" fill="white" stroke="#C2C2C2" stroke-width="0.779835" stroke-miterlimit="10"/>
<path d="M387.818 41.5901C387.106 41.5901 386.448 41.4754 385.845 41.2401C385.241 41.0048 384.722 40.6729 384.294 40.2444C383.865 39.816 383.534 39.2971 383.298 38.6997C383.063 38.1023 382.948 37.4506 382.948 36.7446C382.948 36.0145 383.063 35.3386 383.292 34.7231C383.521 34.1076 383.847 33.5827 384.276 33.1542C384.704 32.7258 385.211 32.3939 385.815 32.1586C386.418 31.9232 387.07 31.8086 387.782 31.8086C388.494 31.8086 389.151 31.9232 389.761 32.1586C390.364 32.3939 390.883 32.7258 391.318 33.1542C391.752 33.5827 392.084 34.1016 392.319 34.699C392.555 35.2964 392.669 35.9481 392.669 36.6541C392.669 37.3842 392.555 38.0601 392.325 38.6755C392.096 39.291 391.77 39.816 391.336 40.2444C390.907 40.6729 390.388 41.0048 389.791 41.2401C389.194 41.4754 388.536 41.5901 387.818 41.5901ZM391.046 36.7989C391.046 35.7489 390.75 34.8981 390.153 34.2585C389.556 33.6189 388.765 33.299 387.782 33.299C387.305 33.299 386.864 33.3775 386.466 33.5283C386.062 33.6792 385.724 33.8964 385.44 34.1861C385.163 34.4757 384.946 34.8257 384.795 35.236C384.644 35.6464 384.565 36.105 384.565 36.6058C384.565 37.1187 384.644 37.5894 384.795 38.0238C384.946 38.4583 385.163 38.8324 385.446 39.1402C385.73 39.454 386.074 39.6893 386.478 39.8522C386.883 40.0151 387.323 40.0996 387.812 40.0996C388.801 40.0996 389.586 39.8039 390.171 39.2066C390.751 38.6212 391.046 37.8127 391.046 36.7989Z" fill="white" stroke="#C2C2C2" stroke-width="0.779835" stroke-miterlimit="10"/>
<path d="M397.382 34.6562C397.382 34.8855 397.461 35.0726 397.617 35.2114C397.774 35.3502 398.016 35.4708 398.335 35.5614C398.661 35.6519 399.319 35.7364 400.303 35.8148C401.292 35.8932 401.974 35.9717 402.348 36.0562C402.722 36.1406 403.03 36.2251 403.265 36.3096C403.501 36.3941 403.742 36.5208 403.978 36.6777C404.213 36.8406 404.412 37.0639 404.575 37.3475C404.738 37.6371 404.816 37.9811 404.816 38.3854C404.816 38.8259 404.738 39.2241 404.575 39.5802C404.412 39.9362 404.195 40.2379 403.917 40.4853C403.64 40.7327 403.32 40.9318 402.97 41.0887C402.62 41.2456 402.215 41.3723 401.757 41.4689C401.298 41.5654 400.803 41.6137 400.26 41.6137C399.639 41.6137 399.072 41.5654 398.553 41.4749C398.034 41.3844 397.557 41.2275 397.111 41.0103C396.664 40.793 396.314 40.4974 396.049 40.1232C395.783 39.7551 395.602 39.3509 395.511 38.9224L396.881 38.2647C397.111 38.8681 397.485 39.3086 398.016 39.5802C398.541 39.8517 399.235 39.9905 400.097 39.9905C400.731 39.9905 401.28 39.9241 401.745 39.7974C402.209 39.6707 402.559 39.4957 402.783 39.2784C403.006 39.0612 403.121 38.8017 403.121 38.5121C403.121 38.3009 403.054 38.1138 402.915 37.9569C402.777 37.794 402.529 37.6613 402.173 37.5587C401.817 37.4561 401.153 37.3716 400.176 37.3113C399.198 37.2509 398.474 37.1785 397.985 37.1001C397.497 37.0216 397.08 36.8889 396.724 36.7079C396.368 36.5268 396.085 36.2855 395.88 35.9717C395.674 35.6579 395.572 35.2717 395.572 34.8071C395.572 34.433 395.65 34.083 395.813 33.7632C395.976 33.4433 396.193 33.1658 396.465 32.9425C396.736 32.7132 397.056 32.5201 397.412 32.3632C397.768 32.2063 398.179 32.0796 398.643 31.977C399.108 31.8744 399.597 31.8262 400.122 31.8262C400.653 31.8262 401.172 31.8744 401.672 31.971C402.173 32.0675 402.638 32.2244 403.054 32.4356C403.471 32.6529 403.821 32.9365 404.098 33.2925C404.376 33.6485 404.551 34.0709 404.629 34.5536L403.338 35.0605C403.229 34.6562 403.018 34.3243 402.71 34.0528C402.403 33.7813 402.022 33.5821 401.57 33.4494C401.117 33.3166 400.628 33.2502 400.11 33.2502C399.627 33.2502 399.144 33.3227 398.673 33.4675C398.203 33.6123 397.871 33.7933 397.678 34.0106C397.479 34.2338 397.382 34.445 397.382 34.6562Z" fill="white" stroke="#C2C2C2" stroke-width="0.779835" stroke-miterlimit="10"/>
<path d="M416.74 32.1457V33.6844H412.679V41.2755H411.128V33.6784H407.079V32.1396H416.74V32.1457Z" fill="white" stroke="#C2C2C2" stroke-width="0.779835" stroke-miterlimit="10"/>
<path d="M426.684 41.2694L425.423 38.6626H420.493L419.232 41.2694H417.5L421.96 32.1396H423.951L428.41 41.2694H426.684ZM422.828 33.8292L421.223 37.1481H424.693L423.088 33.8292H422.828Z" fill="white" stroke="#C2C2C2" stroke-width="0.779835" stroke-miterlimit="10"/>
<path d="M444.31 41.5287C443.954 41.5287 443.653 41.4261 443.405 41.215C443.158 41.0038 442.953 40.7322 442.778 40.3943C442.609 40.0564 442.41 39.5676 442.186 38.934C441.963 38.3004 441.794 37.8478 441.686 37.5823H438.089V41.2753H436.538V32.1455H442.235C442.772 32.1455 443.26 32.2119 443.695 32.3386C444.129 32.4653 444.497 32.6463 444.793 32.8817C445.089 33.117 445.318 33.3946 445.475 33.7265C445.632 34.0584 445.71 34.4204 445.71 34.8126C445.71 35.4885 445.493 36.0617 445.059 36.5203C444.624 36.985 444.069 37.2625 443.393 37.3651C443.592 38.0892 443.761 38.6142 443.888 38.9461C444.015 39.278 444.166 39.5254 444.329 39.7004C444.491 39.8754 444.697 39.9598 444.932 39.9598C445.167 39.9598 445.427 39.8935 445.698 39.7667V41.2753C445.173 41.4443 444.715 41.5287 444.31 41.5287ZM438.095 36.2186H442.132C442.398 36.2186 442.669 36.1522 442.953 36.0134C443.236 35.8747 443.448 35.7057 443.586 35.5005C443.725 35.2954 443.791 35.0842 443.791 34.879C443.791 34.4928 443.641 34.1971 443.333 33.9799C443.025 33.7627 442.579 33.6601 441.981 33.6601L438.095 33.6903V36.2186Z" fill="white" stroke="#C2C2C2" stroke-width="0.779835" stroke-miterlimit="10"/>
<path d="M450.851 41.2693H449.301V32.1455H450.851V41.2693Z" fill="white" stroke="#C2C2C2" stroke-width="0.779835" stroke-miterlimit="10"/>
<path d="M462.636 35.4957C462.51 35.0673 462.286 34.6992 461.979 34.3914C461.665 34.0837 461.285 33.8423 460.832 33.6734C460.379 33.4984 459.915 33.4139 459.438 33.4139C458.961 33.4139 458.515 33.4863 458.099 33.6251C457.682 33.7699 457.32 33.9751 457.012 34.2466C456.705 34.5242 456.469 34.8621 456.3 35.2604C456.131 35.6647 456.047 36.1172 456.047 36.6181C456.047 36.8655 456.077 37.137 456.137 37.4327C456.198 37.7284 456.306 38.0241 456.469 38.3197C456.632 38.6154 456.849 38.8869 457.121 39.1344C457.399 39.3878 457.749 39.5869 458.183 39.7438C458.617 39.9007 459.088 39.9791 459.589 39.9791C460.144 39.9791 460.645 39.8705 461.092 39.6593C461.538 39.4421 461.888 39.1585 462.154 38.8085C462.419 38.4585 462.594 38.0542 462.672 37.5956L463.976 38.1568C463.891 38.899 463.644 39.5205 463.234 40.0214C462.823 40.5222 462.286 40.9084 461.623 41.1739C460.959 41.4394 460.211 41.5722 459.378 41.5722C458.672 41.5722 458.008 41.4515 457.386 41.2041C456.765 40.9567 456.228 40.6067 455.781 40.1602C455.335 39.7136 454.985 39.1826 454.738 38.5732C454.49 37.9637 454.369 37.312 454.369 36.6181C454.369 35.894 454.496 35.2362 454.75 34.6389C455.003 34.0415 455.353 33.5406 455.806 33.1303C456.258 32.72 456.801 32.4062 457.423 32.189C458.05 31.9717 458.726 31.8691 459.462 31.8691C460.156 31.8691 460.778 31.9597 461.315 32.1346C461.852 32.3157 462.316 32.545 462.697 32.8346C463.077 33.1243 463.372 33.4561 463.584 33.8303C463.795 34.2044 463.94 34.5785 464.024 34.9526L462.636 35.4957Z" fill="white" stroke="#C2C2C2" stroke-width="0.779835" stroke-miterlimit="10"/>
<path d="M475.296 41.2694L474.035 38.6626H469.105L467.844 41.2694H466.112L470.571 32.1396H472.562L477.022 41.2694H475.296ZM471.44 33.8292L469.835 37.1481H473.305L471.7 33.8292H471.44Z" fill="white" stroke="#C2C2C2" stroke-width="0.779835" stroke-miterlimit="10"/>
<path d="M81.7922 14.8721L84.9723 21.5761L88.1342 14.8721H91.1332V25.7759H88.7738V19.0176L85.4972 25.788H84.4292L81.1526 19.0176V25.7759H78.7932V14.8721H81.7922Z" fill="white" stroke="#C2C2C2" stroke-width="0.779835" stroke-miterlimit="10"/>
<path d="M98.2173 25.7759H95.8579V14.8721H98.2173V25.7759Z" fill="white" stroke="#C2C2C2" stroke-width="0.779835" stroke-miterlimit="10"/>
<path d="M113.828 14.8721V25.7759H111.469L105.32 18.5288V25.7759H102.96V14.8721H105.338L111.469 22.1735V14.8721H113.828Z" fill="white" stroke="#C2C2C2" stroke-width="0.779835" stroke-miterlimit="10"/>
<path d="M120.93 25.7759H118.571V14.8721H120.93V25.7759Z" fill="white" stroke="#C2C2C2" stroke-width="0.779835" stroke-miterlimit="10"/>
<path d="M127.701 17.8407C127.701 18.0399 127.779 18.2149 127.93 18.3838C128.081 18.5467 128.34 18.6795 128.702 18.776C129.064 18.8726 129.782 18.9752 130.857 19.0717C131.931 19.1683 132.709 19.2769 133.192 19.3915C133.675 19.5062 134.073 19.6389 134.387 19.7838C134.706 19.9286 134.984 20.1156 135.225 20.3389C135.467 20.5622 135.654 20.8397 135.78 21.1656C135.907 21.4914 135.98 21.8656 135.98 22.2819C135.98 22.819 135.883 23.3017 135.69 23.7301C135.497 24.1646 135.237 24.5267 134.912 24.8284C134.586 25.1301 134.206 25.3775 133.783 25.5645C133.355 25.7576 132.872 25.9085 132.323 26.0171C131.774 26.1257 131.182 26.18 130.537 26.18C129.662 26.18 128.913 26.1197 128.292 25.999C127.67 25.8783 127.127 25.6852 126.669 25.4258C126.21 25.1663 125.824 24.8284 125.51 24.4241C125.196 24.0198 124.979 23.5431 124.846 23L126.964 21.8716C127.272 22.475 127.67 22.9276 128.171 23.2414C128.666 23.5551 129.372 23.706 130.277 23.706C132.341 23.706 133.379 23.2957 133.379 22.475C133.379 22.2699 133.306 22.0888 133.168 21.944C133.023 21.7992 132.781 21.6725 132.437 21.5759C132.094 21.4794 131.436 21.4009 130.47 21.3406C129.505 21.2802 128.811 21.2199 128.389 21.1596C127.966 21.0992 127.628 21.0328 127.375 20.9544C127.115 20.8759 126.874 20.7915 126.645 20.701C126.415 20.6104 126.162 20.4596 125.89 20.2605C125.619 20.0613 125.39 19.7717 125.208 19.3976C125.027 19.0234 124.937 18.5829 124.937 18.07C124.937 17.7985 124.991 17.4907 125.094 17.1589C125.196 16.827 125.383 16.5072 125.649 16.1994C125.914 15.8917 126.277 15.6081 126.729 15.3365C127.182 15.071 127.737 14.8598 128.395 14.7029C129.052 14.5521 129.716 14.4736 130.398 14.4736C131.044 14.4736 131.671 14.54 132.281 14.6788C132.89 14.8176 133.445 15.0227 133.946 15.2943C134.441 15.5658 134.851 15.9158 135.165 16.3382C135.485 16.7606 135.666 17.2313 135.72 17.7563L133.783 18.5105C133.662 18.1062 133.445 17.7623 133.137 17.4847C132.824 17.2071 132.437 16.9899 131.967 16.827C131.496 16.6701 130.983 16.5916 130.428 16.5916C129.716 16.5916 129.088 16.7123 128.533 16.9537C127.978 17.1951 127.701 17.4907 127.701 17.8407Z" fill="white" stroke="#C2C2C2" stroke-width="0.779835" stroke-miterlimit="10"/>
<path d="M150.082 14.8721V17.2013H145.49V25.7759H143.13V17.2013H138.538V14.8721H150.082Z" fill="white" stroke="#C2C2C2" stroke-width="0.779835" stroke-miterlimit="10"/>
<path d="M163.87 23.4648V25.7759H153.509V14.8721H163.574V17.2013H155.868V18.9572H162.198V21.3528H155.868V23.4708H163.87V23.4648Z" fill="white" stroke="#C2C2C2" stroke-width="0.779835" stroke-miterlimit="10"/>
<path d="M173.971 21.4007H170.085V25.7815H167.725V14.8716L174.84 14.8535C176.053 14.8535 177.03 15.1552 177.772 15.7647C178.515 16.3741 178.889 17.1526 178.889 18.0999C178.889 18.8663 178.684 19.5119 178.267 20.043C177.851 20.574 177.284 20.9119 176.559 21.0507L177.151 22.9695C177.217 23.2109 177.332 23.3859 177.501 23.5006C177.67 23.6152 177.857 23.6756 178.068 23.6756C178.352 23.6756 178.605 23.6031 178.822 23.4644V25.7755C178.146 25.9927 177.573 26.1013 177.103 26.1013C176.481 26.1013 175.968 25.9324 175.57 25.6005C175.172 25.2686 174.888 24.7919 174.725 24.1824L173.971 21.4007ZM170.085 19.3309H174.466C174.936 19.3309 175.298 19.2283 175.558 19.0171C175.817 18.812 175.944 18.5404 175.944 18.2146C175.944 17.8948 175.823 17.6474 175.576 17.4663C175.328 17.2853 174.985 17.1948 174.532 17.1948L170.091 17.225V19.3309H170.085Z" fill="white" stroke="#C2C2C2" stroke-width="0.779835" stroke-miterlimit="10"/>
<path d="M185.333 25.7759H182.974V14.8721H185.333V25.7759Z" fill="white" stroke="#C2C2C2" stroke-width="0.779835" stroke-miterlimit="10"/>
<path d="M195.109 26.1561C194.258 26.1561 193.468 26.0173 192.75 25.7397C192.032 25.4621 191.41 25.0639 190.897 24.551C190.384 24.0381 189.986 23.4226 189.708 22.7045C189.431 21.9864 189.292 21.208 189.292 20.3692C189.292 19.4943 189.431 18.6857 189.702 17.9495C189.974 17.2133 190.366 16.5858 190.873 16.0729C191.38 15.56 191.995 15.1617 192.707 14.8841C193.425 14.6066 194.21 14.4678 195.061 14.4678C195.912 14.4678 196.702 14.6066 197.42 14.8841C198.144 15.1617 198.76 15.56 199.279 16.0729C199.798 16.5858 200.196 17.2013 200.473 17.9194C200.751 18.6374 200.89 19.4158 200.89 20.2546C200.89 21.1296 200.751 21.9381 200.479 22.6743C200.208 23.4105 199.81 24.0381 199.297 24.551C198.784 25.0639 198.168 25.4621 197.45 25.7397C196.744 26.0173 195.96 26.1561 195.109 26.1561ZM198.422 20.4839C198.422 19.3495 198.12 18.4383 197.511 17.7564C196.901 17.0746 196.087 16.7306 195.061 16.7306C194.047 16.7306 193.238 17.0323 192.653 17.6418C192.062 18.2512 191.766 19.084 191.766 20.1399C191.766 21.2865 192.062 22.1976 192.659 22.8795C193.256 23.5553 194.065 23.8932 195.097 23.8932C196.111 23.8932 196.925 23.5915 197.523 22.9821C198.12 22.3726 198.422 21.5399 198.422 20.4839Z" fill="white" stroke="#C2C2C2" stroke-width="0.779835" stroke-miterlimit="10"/>
<path d="M216.44 14.8721C217.224 14.8721 217.96 14.9928 218.636 15.2402C219.312 15.4876 219.897 15.8375 220.38 16.2961C220.869 16.7547 221.243 17.3039 221.502 17.9375C221.762 18.5711 221.895 19.259 221.895 20.0012C221.895 20.8098 221.768 21.5701 221.508 22.2821C221.249 22.9941 220.881 23.6096 220.392 24.1286C219.903 24.6475 219.324 25.0518 218.648 25.3415C217.972 25.6311 217.224 25.7759 216.416 25.7759H211.021V14.8721H216.44ZM213.386 23.5795H215.649C216.216 23.5795 216.729 23.495 217.188 23.326C217.647 23.1571 218.033 22.9217 218.353 22.614C218.672 22.3062 218.908 21.9382 219.077 21.5097C219.24 21.0753 219.324 20.6046 219.324 20.0917C219.324 19.1503 219.004 18.4323 218.365 17.9375C217.725 17.4427 216.826 17.1892 215.667 17.1892H213.386V23.5795Z" fill="white" stroke="#C2C2C2" stroke-width="0.779835" stroke-miterlimit="10"/>
<path d="M236.178 23.4648V25.7759H225.817V14.8721H235.882V17.2013H228.177V18.9572H234.506V21.3528H228.177V23.4708H236.178V23.4648Z" fill="white" stroke="#C2C2C2" stroke-width="0.779835" stroke-miterlimit="10"/>
<path d="M89.1662 43.3662V45.6773H78.8054V34.7734H88.8705V37.1026H81.1648V38.8586H87.4947V41.2542H81.1648V43.3722H89.1662V43.3662Z" fill="white" stroke="#C2C2C2" stroke-width="0.779835" stroke-miterlimit="10"/>
<path d="M98.4468 34.7734C99.2313 34.7734 99.9674 34.8941 100.643 35.1415C101.319 35.3889 101.904 35.7389 102.387 36.1975C102.876 36.6561 103.25 37.2052 103.51 37.8388C103.769 38.4724 103.902 39.1603 103.902 39.9025C103.902 40.7111 103.775 41.4714 103.516 42.1835C103.256 42.8955 102.888 43.511 102.399 44.0299C101.91 44.5489 101.331 44.9532 100.655 45.2428C99.9795 45.5325 99.2313 45.6773 98.4227 45.6773H93.0281V34.7734H98.4468ZM95.3995 43.4808H97.6624C98.2296 43.4808 98.7425 43.3963 99.2011 43.2274C99.6597 43.0584 100.046 42.8231 100.366 42.5154C100.686 42.2076 100.921 41.8395 101.09 41.4111C101.253 40.9766 101.337 40.506 101.337 39.993C101.337 39.0517 101.017 38.3336 100.378 37.8388C99.7381 37.344 98.839 37.0906 97.6805 37.0906H95.3995V43.4808Z" fill="white" stroke="#C2C2C2" stroke-width="0.779835" stroke-miterlimit="10"/>
<path d="M112.844 46.0695C112.036 46.0695 111.299 45.9609 110.642 45.7497C109.978 45.5385 109.423 45.2308 108.958 44.8385C108.494 44.4463 108.15 43.9756 107.908 43.4265C107.667 42.8774 107.546 42.286 107.546 41.6404V34.7734H109.906V41.0671C109.906 41.9421 110.141 42.5938 110.612 43.0283C111.082 43.4627 111.824 43.6739 112.844 43.6739C113.864 43.6739 114.606 43.4567 115.077 43.0283C115.548 42.5938 115.783 41.9421 115.783 41.0671V34.7734H118.142V41.6464C118.142 42.2921 118.022 42.8895 117.78 43.4326C117.539 43.9817 117.189 44.4463 116.73 44.8446C116.272 45.2368 115.71 45.5385 115.047 45.7557C114.389 45.9669 113.653 46.0695 112.844 46.0695Z" fill="white" stroke="#C2C2C2" stroke-width="0.779835" stroke-miterlimit="10"/>
<path d="M131.146 38.9548C131.026 38.5747 130.814 38.2126 130.507 37.8747C130.199 37.5368 129.795 37.2652 129.294 37.0722C128.793 36.873 128.292 36.7765 127.803 36.7765C127.333 36.7765 126.886 36.8489 126.458 36.9877C126.029 37.1325 125.655 37.3437 125.335 37.6273C125.015 37.9109 124.762 38.2669 124.581 38.6954C124.4 39.1238 124.309 39.5945 124.309 40.1194C124.309 40.5237 124.37 40.9341 124.497 41.3504C124.623 41.7668 124.84 42.1409 125.142 42.4728C125.45 42.8047 125.842 43.0822 126.331 43.2934C126.82 43.5046 127.393 43.6133 128.063 43.6133C128.358 43.6133 128.666 43.571 128.992 43.4926C129.312 43.4081 129.632 43.2693 129.933 43.0641C130.241 42.865 130.513 42.5935 130.76 42.2616C131.007 41.9297 131.176 41.5314 131.279 41.0728L133.228 41.9599C133.15 42.6719 132.944 43.2934 132.607 43.8305C132.269 44.3675 131.84 44.796 131.321 45.1158C130.802 45.4356 130.235 45.6709 129.614 45.8218C128.998 45.9666 128.371 46.0451 127.737 46.0451C126.892 46.0451 126.102 45.9002 125.359 45.6046C124.617 45.3089 123.978 44.8925 123.441 44.3555C122.904 43.8184 122.487 43.1909 122.191 42.4607C121.896 41.7366 121.751 40.9522 121.751 40.1255C121.751 39.2927 121.896 38.5264 122.185 37.8204C122.475 37.1144 122.891 36.511 123.435 36.0101C123.978 35.5093 124.623 35.1231 125.378 34.8516C126.132 34.5861 126.959 34.4473 127.852 34.4473C128.377 34.4473 128.92 34.5016 129.481 34.6102C130.042 34.7188 130.579 34.9119 131.08 35.1895C131.581 35.467 132.033 35.8472 132.432 36.3299C132.83 36.8127 133.119 37.4101 133.294 38.1342L131.146 38.9548Z" fill="white" stroke="#C2C2C2" stroke-width="0.779835" stroke-miterlimit="10"/>
<path d="M146.443 45.6773L145.194 43.0524H139.485L138.255 45.6773H135.563L140.873 34.7734H143.806L149.116 45.6773H146.443ZM142.147 37.4647L140.59 40.7594H144.114L142.557 37.4647H142.147Z" fill="white" stroke="#C2C2C2" stroke-width="0.779835" stroke-miterlimit="10"/>
<path d="M160.479 38.9548C160.358 38.5747 160.147 38.2126 159.839 37.8747C159.531 37.5368 159.127 37.2652 158.626 37.0722C158.125 36.873 157.625 36.7765 157.136 36.7765C156.665 36.7765 156.219 36.8489 155.79 36.9877C155.362 37.1325 154.988 37.3437 154.668 37.6273C154.348 37.9109 154.095 38.2669 153.914 38.6954C153.733 39.1238 153.642 39.5945 153.642 40.1194C153.642 40.5237 153.702 40.9341 153.829 41.3504C153.956 41.7668 154.173 42.1409 154.475 42.4728C154.782 42.8047 155.175 43.0822 155.663 43.2934C156.152 43.5046 156.726 43.6133 157.395 43.6133C157.691 43.6133 157.999 43.571 158.325 43.4926C158.644 43.4081 158.964 43.2693 159.266 43.0641C159.574 42.865 159.845 42.5935 160.093 42.2616C160.34 41.9297 160.509 41.5314 160.612 41.0728L162.561 41.9599C162.482 42.6719 162.277 43.2934 161.939 43.8305C161.601 44.3675 161.173 44.796 160.654 45.1158C160.135 45.4356 159.568 45.6709 158.946 45.8218C158.331 45.9666 157.703 46.0451 157.069 46.0451C156.225 46.0451 155.434 45.9002 154.692 45.6046C153.95 45.3089 153.31 44.8925 152.773 44.3555C152.236 43.8184 151.82 43.1909 151.524 42.4607C151.228 41.7366 151.083 40.9522 151.083 40.1255C151.083 39.2927 151.228 38.5264 151.518 37.8204C151.808 37.1144 152.224 36.511 152.767 36.0101C153.31 35.5093 153.956 35.1231 154.71 34.8516C155.464 34.5861 156.291 34.4473 157.184 34.4473C157.709 34.4473 158.252 34.5016 158.813 34.6102C159.375 34.7188 159.912 34.9119 160.412 35.1895C160.913 35.467 161.366 35.8472 161.764 36.3299C162.162 36.8127 162.452 37.4101 162.627 38.1342L160.479 38.9548Z" fill="white" stroke="#C2C2C2" stroke-width="0.779835" stroke-miterlimit="10"/>
<path d="M168.709 45.6773H166.35V34.7734H168.709V45.6773Z" fill="white" stroke="#C2C2C2" stroke-width="0.779835" stroke-miterlimit="10"/>
<path d="M176.119 45.6334C175.395 45.3559 174.78 44.9576 174.267 44.4447C173.754 43.9318 173.356 43.3163 173.078 42.5982C172.8 41.8801 172.662 41.1017 172.662 40.263C172.662 39.388 172.8 38.5794 173.072 37.8432C173.343 37.1071 173.736 36.4795 174.243 35.9666C174.749 35.4537 175.365 35.0554 176.077 34.7778C176.795 34.5003 177.58 34.3615 178.43 34.3615C179.281 34.3615 180.072 34.5003 180.79 34.7778C181.514 35.0554 182.129 35.4537 182.648 35.9666C183.167 36.4795 183.565 37.095 183.843 37.8131C184.121 38.5311 184.259 39.3096 184.259 40.1483C184.259 41.0233 184.121 41.8319 183.849 42.568C183.578 43.3042 183.179 43.9318 182.666 44.4447C182.153 44.9576 181.538 45.3559 180.82 45.6334C180.102 45.911 179.317 46.0498 178.467 46.0498C177.616 46.0498 176.843 45.911 176.119 45.6334ZM180.88 37.6501C180.271 36.9683 179.456 36.6243 178.43 36.6243C177.417 36.6243 176.608 36.926 176.023 37.5355C175.431 38.1449 175.136 38.9777 175.136 40.0337C175.136 41.1802 175.431 42.0913 176.029 42.7732C176.626 43.449 177.435 43.7869 178.467 43.7869C179.48 43.7869 180.295 43.4852 180.892 42.8758C181.496 42.2663 181.791 41.4336 181.791 40.3776C181.791 39.2432 181.49 38.332 180.88 37.6501ZM177.543 33.7038H178.937L180.675 30.9521H177.869L177.543 33.7038Z" fill="white" stroke="#C2C2C2" stroke-width="0.779835" stroke-miterlimit="10"/>
<path d="M199.092 34.7734V45.6773H196.732L190.584 38.4302V45.6773H188.224V34.7734H190.602L196.732 42.0688V34.7734H199.092Z" fill="white" stroke="#C2C2C2" stroke-width="0.779835" stroke-miterlimit="10"/>
<path d="M212.373 42.001V45.6759H210.013V34.772L216.573 34.7539C217.315 34.7539 217.973 34.8444 218.54 35.0134C219.107 35.1884 219.578 35.4297 219.94 35.7435C220.308 36.0573 220.579 36.4254 220.754 36.8478C220.929 37.2762 221.014 37.7408 221.014 38.2417C221.014 38.6339 220.923 39.0503 220.754 39.4908C220.579 39.9252 220.326 40.3356 219.994 40.7037C219.662 41.0778 219.252 41.3795 218.763 41.6148C218.274 41.8502 217.749 41.9648 217.182 41.9648L212.373 42.001ZM216.717 37.065L212.373 37.1314V39.5572H216.699C216.929 39.5572 217.164 39.5149 217.411 39.4244C217.659 39.3399 217.852 39.1891 218.003 38.9718C218.148 38.7606 218.226 38.5253 218.226 38.2779C218.226 38.0365 218.154 37.8133 218.003 37.6141C217.858 37.415 217.659 37.2702 217.423 37.1857C217.182 37.1073 216.947 37.065 216.717 37.065Z" fill="white" stroke="#C2C2C2" stroke-width="0.779835" stroke-miterlimit="10"/>
<path d="M227.483 45.7481C226.819 45.5369 226.264 45.2291 225.799 44.8369C225.335 44.4447 224.991 43.974 224.749 43.4249C224.508 42.8758 224.387 42.2844 224.387 41.6388V34.7718H226.747V41.0655C226.747 41.9405 226.982 42.5922 227.453 43.0266C227.923 43.4611 228.665 43.6723 229.685 43.6723C230.705 43.6723 231.447 43.4551 231.918 43.0266C232.389 42.5922 232.624 41.9405 232.624 41.0655V34.7718H234.983V41.6448C234.983 42.2905 234.863 42.8879 234.621 43.4309C234.38 43.98 234.03 44.4447 233.571 44.8429C233.113 45.2352 232.552 45.5369 231.888 45.7541C231.224 45.9653 230.494 46.0739 229.685 46.0739C228.877 46.0679 228.14 45.9653 227.483 45.7481ZM228.738 33.7038H230.132L231.87 30.9521H229.064L228.738 33.7038Z" fill="white" stroke="#C2C2C2" stroke-width="0.779835" stroke-miterlimit="10"/>
<path d="M239.424 34.7724L245.428 34.7422C246.925 34.7422 248.035 34.9956 248.759 35.5025C249.483 36.0094 249.839 36.7999 249.839 37.874C249.839 38.1455 249.779 38.4291 249.664 38.7248C249.55 39.0205 249.314 39.3885 248.97 39.823C249.682 40.535 250.039 41.2531 250.039 41.9893C250.039 42.7194 249.882 43.3651 249.562 43.9142C249.242 44.4694 248.735 44.9038 248.029 45.2176C247.323 45.5374 246.424 45.6943 245.332 45.6943L239.43 45.6762V34.7724H239.424ZM241.79 39.0205H245.923C246.297 39.0205 246.593 38.9179 246.816 38.7187C247.04 38.5196 247.154 38.2782 247.154 38.0067C247.154 37.7533 247.052 37.536 246.84 37.349C246.635 37.1619 246.34 37.0714 245.953 37.0714L241.79 37.1378V39.0205ZM241.79 41.2471V43.4254L245.465 43.4737C245.857 43.4737 246.201 43.4315 246.49 43.341C246.78 43.2565 247.009 43.1177 247.172 42.9306C247.335 42.7436 247.42 42.4962 247.42 42.1945C247.42 41.8867 247.275 41.6514 246.979 41.4885C246.683 41.3255 246.177 41.2411 245.453 41.2411H241.79V41.2471Z" fill="white" stroke="#C2C2C2" stroke-width="0.779835" stroke-miterlimit="10"/>
<path d="M263.857 43.3662V45.6773H254.148V34.7734H256.507V43.3662H263.857Z" fill="white" stroke="#C2C2C2" stroke-width="0.779835" stroke-miterlimit="10"/>
<path d="M269.68 45.6773H267.321V34.7734H269.68V45.6773Z" fill="white" stroke="#C2C2C2" stroke-width="0.779835" stroke-miterlimit="10"/>
<path d="M282.961 38.9548C282.84 38.5747 282.629 38.2126 282.322 37.8747C282.014 37.5368 281.61 37.2652 281.109 37.0722C280.608 36.873 280.107 36.7765 279.618 36.7765C279.148 36.7765 278.701 36.8489 278.273 36.9877C277.844 37.1325 277.47 37.3437 277.15 37.6273C276.83 37.9109 276.577 38.2669 276.396 38.6954C276.215 39.1238 276.124 39.5945 276.124 40.1194C276.124 40.5237 276.185 40.9341 276.311 41.3504C276.438 41.7668 276.655 42.1409 276.957 42.4728C277.265 42.8047 277.657 43.0822 278.146 43.2934C278.635 43.5046 279.208 43.6133 279.878 43.6133C280.173 43.6133 280.481 43.571 280.807 43.4926C281.127 43.4081 281.447 43.2693 281.748 43.0641C282.056 42.865 282.328 42.5935 282.575 42.2616C282.822 41.9297 282.991 41.5314 283.094 41.0728L285.043 41.9599C284.965 42.6719 284.759 43.2934 284.421 43.8305C284.084 44.3675 283.655 44.796 283.136 45.1158C282.617 45.4356 282.05 45.6709 281.428 45.8218C280.813 45.9666 280.185 46.0451 279.552 46.0451C278.707 46.0451 277.917 45.9002 277.174 45.6046C276.432 45.3089 275.793 44.8925 275.255 44.3555C274.718 43.8184 274.302 43.1909 274.006 42.4607C273.711 41.7366 273.566 40.9522 273.566 40.1255C273.566 39.2927 273.711 38.5264 274 37.8204C274.29 37.1144 274.706 36.511 275.249 36.0101C275.793 35.5093 276.438 35.1231 277.192 34.8516C277.947 34.5861 278.773 34.4473 279.667 34.4473C280.191 34.4473 280.735 34.5016 281.296 34.6102C281.857 34.7188 282.394 34.9119 282.895 35.1895C283.396 35.467 283.848 35.8472 284.246 36.3299C284.645 36.8127 284.934 37.4101 285.109 38.1342L282.961 38.9548Z" fill="white" stroke="#C2C2C2" stroke-width="0.779835" stroke-miterlimit="10"/>
<path d="M298.258 45.6773L297.009 43.0524H291.301L290.07 45.6773H287.378L292.689 34.7734H295.621L300.931 45.6773H298.258ZM293.962 37.4647L292.405 40.7594H295.929L294.372 37.4647H293.962Z" fill="white" stroke="#C2C2C2" stroke-width="0.779835" stroke-miterlimit="10"/>
<path d="M62.175 59.0966H1V1.57227H62.181V59.0966H62.175ZM2.56286 57.5276H60.6121V3.13513H2.56286V57.5276Z" fill="white" stroke="#C2C2C2" stroke-width="0.779835" stroke-miterlimit="10"/>
<path d="M40.7112 13.5087V14.6672L41.2422 15.6689L51.7538 29.1856L55.5795 31.557L54.608 32.3234L51.1383 31.2553L50.2935 38.2128L53.3287 40.198L50.5831 43.0945L51.265 47.1917L48.8393 48.658L49.4729 51.6088L47.3307 48.1693L47.8436 45.5806L47.0411 44.3617L44.5912 43.0522L43.0705 43.016L45.5446 44.9047L45.6049 47.1977L43.2938 46.9443L39.4862 45.1763L41.1818 41.254L40.9827 39.6972L32.1425 32.5828L32.1727 32.7156L26.1385 30.1993L25.1247 25.4625L23.9119 25.1487L18.1975 20.9187L17.3346 20.967L23.3386 25.8969L20.1405 30.845L16.351 26.9891L10.3409 24.6116L9.7435 19.1145L10.0392 17.6421L12.4951 16.0068L10.2262 12.8449L9.04956 12.3984L9.06766 11.5777L11.3607 11.4932L12.127 8.45801L20.3758 11.0708L27.2186 11.2639L35.2381 13.8043L40.1258 12.3501L40.7112 13.5087Z" fill="white" stroke="#C2C2C2" stroke-width="0.779835" stroke-miterlimit="10"/>
<path d="M320.681 1H319.686V59.8759H320.681V1Z" fill="white" stroke="#C2C2C2" stroke-width="0.779835" stroke-miterlimit="10"/>
</svg>
