<?xml version="1.0" encoding="UTF-8" standalone="no"?>
<svg
   viewBox="0 0 576 512"
   version="1.1"
   id="svg1"
   sodipodi:docname="youtube.svg"
   xml:space="preserve"
   inkscape:version="1.3.2 (091e20e, 2023-11-25, custom)"
   xmlns:inkscape="http://www.inkscape.org/namespaces/inkscape"
   xmlns:sodipodi="http://sodipodi.sourceforge.net/DTD/sodipodi-0.dtd"
   xmlns="http://www.w3.org/2000/svg"
   xmlns:svg="http://www.w3.org/2000/svg"><defs
     id="defs1" /><sodipodi:namedview
     id="namedview1"
     pagecolor="#ffffff"
     bordercolor="#000000"
     borderopacity="0.25"
     inkscape:showpageshadow="2"
     inkscape:pageopacity="0.0"
     inkscape:pagecheckerboard="0"
     inkscape:deskcolor="#d1d1d1"
     inkscape:zoom="2.3769531"
     inkscape:cx="288.18406"
     inkscape:cy="256"
     inkscape:window-width="2560"
     inkscape:window-height="1494"
     inkscape:window-x="-11"
     inkscape:window-y="-11"
     inkscape:window-maximized="1"
     inkscape:current-layer="svg1" /><path
     style="fill:#000000;stroke-width:5.91205"
     d="M 46.853353,449.34951 C 21.089369,434.91157 -0.91722412,408.63781 0.61776045,377.59971 -1.0164227,303.9815 0.98095755,230.30332 1.7955853,156.68027 3.2867473,124.48242 4.8316331,83.127862 38.017497,66.954807 81.278388,48.888613 129.5781,53.575608 175.40081,52.165893 c 106.65927,1.497671 213.39891,0.114112 319.99329,4.38503 30.21504,-2.333055 54.07104,18.471377 70.31685,41.731102 13.06414,24.473625 8.10072,53.734515 9.91244,80.515965 -0.61953,70.14795 2.85401,140.57858 -3.64093,210.51932 -0.87018,25.77978 -17.15828,48.11905 -40.73111,58.00608 -29.49065,15.35764 -64.31726,9.67908 -96.3663,11.91426 C 321.2994,459.5619 207.65761,461.00859 94.108112,457.7228 78.227004,456.53483 61.467635,456.50667 46.853353,449.34951 Z M 329.07985,289.23907 c 21.7985,-14.93415 44.4029,-28.92889 65.03257,-45.42437 -54.59844,-36.64723 -109.39673,-72.99618 -164.10332,-109.48184 0,73.43828 0,146.87657 0,220.31485 33.20076,-21.53295 66.08985,-43.54169 99.07075,-65.40864 z"
     id="path2" /></svg>
